<svg width="38" height="37" viewBox="0 0 38 37" fill="none" xmlns="http://www.w3.org/2000/svg">
<path d="M19.1755 0.0810547C14.1688 0.0810547 13.5405 0.102947 11.5741 0.192438C9.61147 0.282312 8.27185 0.593031 7.09968 1.04893C5.88718 1.51981 4.85865 2.1497 3.83396 3.1748C2.8085 4.19952 2.17863 5.22808 1.70623 6.44023C1.24919 7.61283 0.9381 8.95287 0.849765 10.9147C0.761813 12.8812 0.73877 13.51 0.73877 18.5168C0.73877 23.5236 0.761046 24.1501 0.850149 26.1166C0.940405 28.0792 1.25111 29.4189 1.70662 30.5911C2.17787 31.8036 2.80774 32.8322 3.83281 33.8569C4.85711 34.8824 5.88564 35.5138 7.09737 35.9847C8.27031 36.4406 9.61032 36.7513 11.5725 36.8412C13.5389 36.9307 14.1669 36.9525 19.1732 36.9525C24.1803 36.9525 24.8067 36.9307 26.7731 36.8412C28.7357 36.7513 30.0768 36.4406 31.2498 35.9847C32.4619 35.5138 33.4889 34.8824 34.5132 33.8569C35.5387 32.8322 36.1685 31.8036 36.6409 30.5914C37.0941 29.4189 37.4052 28.0788 37.4974 26.1169C37.5857 24.1505 37.6088 23.5236 37.6088 18.5168C37.6088 13.51 37.5857 12.8816 37.4974 10.9151C37.4052 8.95249 37.0941 7.61282 36.6409 6.44062C36.1685 5.22808 35.5387 4.19952 34.5132 3.1748C33.4877 2.14932 32.4623 1.51943 31.2486 1.04893C30.0734 0.593031 28.733 0.282312 26.7704 0.192438C24.804 0.102947 24.178 0.0810547 19.1697 0.0810547H19.1755ZM17.5217 3.40333C18.0125 3.40256 18.5602 3.40333 19.1755 3.40333C24.0977 3.40333 24.6811 3.421 26.6249 3.50934C28.4223 3.59153 29.3978 3.89188 30.0477 4.14422C30.908 4.47836 31.5213 4.87781 32.1662 5.52306C32.8114 6.16831 33.2108 6.78283 33.5457 7.64317C33.7981 8.29226 34.0988 9.26782 34.1806 11.0653C34.2689 13.0087 34.2881 13.5925 34.2881 18.5126C34.2881 23.4326 34.2689 24.0164 34.1806 25.9598C34.0984 27.7573 33.7981 28.7329 33.5457 29.382C33.2116 30.2423 32.8114 30.8549 32.1662 31.4998C31.5209 32.145 30.9083 32.5445 30.0477 32.8786C29.3986 33.1321 28.4223 33.4317 26.6249 33.5139C24.6815 33.6022 24.0977 33.6214 19.1755 33.6214C14.2529 33.6214 13.6695 33.6022 11.7261 33.5139C9.92871 33.4309 8.95318 33.1306 8.30296 32.8782C7.44265 32.5441 6.82814 32.1447 6.18291 31.4994C5.53768 30.8542 5.13825 30.2412 4.80335 29.3805C4.55101 28.7314 4.25029 27.7558 4.16848 25.9583C4.08015 24.0149 4.06248 23.4311 4.06248 18.508C4.06248 13.5849 4.08015 13.0041 4.16848 11.0607C4.25067 9.26321 4.55101 8.28765 4.80335 7.63779C5.13748 6.77746 5.53768 6.16293 6.18291 5.51768C6.82814 4.87243 7.44265 4.47299 8.30296 4.13807C8.9528 3.88458 9.92871 3.585 11.7261 3.50242C13.4268 3.42561 14.0858 3.40256 17.5217 3.39872V3.40333ZM29.016 6.46443C27.7947 6.46443 26.8038 7.4542 26.8038 8.67595C26.8038 9.89732 27.7947 10.8882 29.016 10.8882C30.2374 10.8882 31.2283 9.89732 31.2283 8.67595C31.2283 7.45458 30.2374 6.46366 29.016 6.46366V6.46443ZM19.1755 9.04928C13.9472 9.04928 9.70826 13.2883 9.70826 18.5168C9.70826 23.7453 13.9472 27.9824 19.1755 27.9824C24.4038 27.9824 28.6412 23.7453 28.6412 18.5168C28.6412 13.2883 24.4034 9.04928 19.1751 9.04928H19.1755ZM19.1755 12.3716C22.5691 12.3716 25.3206 15.1227 25.3206 18.5168C25.3206 21.9105 22.5691 24.6621 19.1755 24.6621C15.7815 24.6621 13.0304 21.9105 13.0304 18.5168C13.0304 15.1227 15.7815 12.3716 19.1755 12.3716V12.3716Z" fill="#242365"/>
</svg>
